<?xml version="1.0" encoding="UTF-8" standalone="no"?>
<!-- Created with Inkscape (http://www.inkscape.org/) -->

<svg
   width="51.083469mm"
   height="49.975185mm"
   viewBox="0 0 51.08347 49.975185"
   version="1.1"
   id="svg3223"
   inkscape:version="1.4 (86a8ad7, 2024-10-11)"
   sodipodi:docname="logo.svg"
   inkscape:export-filename="logo.png"
   inkscape:export-xdpi="127.28971"
   inkscape:export-ydpi="127.28971"
   xmlns:inkscape="http://www.inkscape.org/namespaces/inkscape"
   xmlns:sodipodi="http://sodipodi.sourceforge.net/DTD/sodipodi-0.dtd"
   xmlns:xlink="http://www.w3.org/1999/xlink"
   xmlns="http://www.w3.org/2000/svg"
   xmlns:svg="http://www.w3.org/2000/svg"
   xmlns:rdf="http://www.w3.org/1999/02/22-rdf-syntax-ns#"
   xmlns:cc="http://creativecommons.org/ns#"
   xmlns:dc="http://purl.org/dc/elements/1.1/">
  <defs
     id="defs3217">
    <linearGradient
       id="linearGradient81"
       inkscape:collect="always">
      <stop
         style="stop-color:#e5d5ff;stop-opacity:1;"
         offset="0"
         id="stop81" />
      <stop
         style="stop-color:#ccaaff;stop-opacity:1;"
         offset="0.345"
         id="stop83" />
      <stop
         style="stop-color:#7e5fd3;stop-opacity:1;"
         offset="1"
         id="stop82" />
    </linearGradient>
    <rect
       x="-1504.7231"
       y="-149.19952"
       width="400.22244"
       height="58.689861"
       id="rect62" />
    <rect
       x="-1329.3607"
       y="-164.75587"
       width="278.60007"
       height="91.923882"
       id="rect61" />
    <linearGradient
       inkscape:collect="always"
       xlink:href="#linearGradient81"
       id="linearGradient82"
       x1="63.388992"
       y1="101.72685"
       x2="64.32444"
       y2="67.957344"
       gradientUnits="userSpaceOnUse" />
    <linearGradient
       inkscape:collect="always"
       xlink:href="#linearGradient81"
       id="linearGradient83"
       gradientUnits="userSpaceOnUse"
       x1="63.388992"
       y1="101.72685"
       x2="64.32444"
       y2="67.957344" />
    <linearGradient
       inkscape:collect="always"
       xlink:href="#linearGradient81"
       id="linearGradient84"
       gradientUnits="userSpaceOnUse"
       x1="63.388992"
       y1="101.72685"
       x2="64.32444"
       y2="67.957344" />
    <linearGradient
       inkscape:collect="always"
       xlink:href="#linearGradient81"
       id="linearGradient85"
       gradientUnits="userSpaceOnUse"
       x1="63.388992"
       y1="101.72685"
       x2="64.32444"
       y2="67.957344" />
    <linearGradient
       inkscape:collect="always"
       xlink:href="#linearGradient81"
       id="linearGradient86"
       gradientUnits="userSpaceOnUse"
       x1="63.388992"
       y1="101.72685"
       x2="64.32444"
       y2="67.957344" />
  </defs>
  <sodipodi:namedview
     id="base"
     pagecolor="#ffffff"
     bordercolor="#666666"
     borderopacity="1.0"
     inkscape:pageopacity="0.0"
     inkscape:pageshadow="2"
     inkscape:zoom="2.8284271"
     inkscape:cx="111.19254"
     inkscape:cy="127.80955"
     inkscape:document-units="mm"
     inkscape:current-layer="g83"
     showgrid="false"
     inkscape:pagecheckerboard="true"
     inkscape:window-width="1728"
     inkscape:window-height="1001"
     inkscape:window-x="-7"
     inkscape:window-y="-7"
     inkscape:window-maximized="1"
     inkscape:showpageshadow="2"
     inkscape:deskcolor="#d1d1d1"
     showguides="true" />
  <metadata
     id="metadata3220">
    <rdf:RDF>
      <cc:Work
         rdf:about="">
        <dc:format>image/svg+xml</dc:format>
        <dc:type
           rdf:resource="http://purl.org/dc/dcmitype/StillImage" />
      </cc:Work>
    </rdf:RDF>
  </metadata>
  <g
     inkscape:label="Layer 1"
     inkscape:groupmode="layer"
     id="layer1"
     transform="translate(-66.08453,-118.9308)">
    <g
       transform="translate(-4.8382487,-10.782221)"
       id="g2559">
      <g
         id="g40"
         transform="translate(29.78744,71.135894)">
        <g
           id="g83">
          <path
             d="M 80.846009,65.222484 78.49008,65.92425 c 0.757251,0.499851 1.479431,1.047351 2.16576,1.636076 l 2.647383,-0.185518 C 82.535824,66.601927 81.713816,65.8836 80.846009,65.222484 Z"
             style="fill:#ffffff"
             id="path81"
             inkscape:label="Circle-4" />
          <path
             d="m 85.824,70.381343 -0.56534,2.697509 c 1.862854,3.19257 2.934704,6.904736 2.934704,10.872205 0,0.529085 -0.02523,1.052006 -0.06253,1.57148 l 1.757515,1.875855 c 0.165636,-1.125565 0.254248,-2.276166 0.254248,-3.447335 0,-5.052992 -1.602356,-9.73267 -4.318599,-13.569714 z"
             style="fill:#ffffff"
             id="path80"
             inkscape:label="Circle-3" />
          <path
             d="m 72.211911,106.80754 -2.407605,-1.50688 c -1.043292,0.15451 -2.110011,0.23668 -3.196704,0.23668 -5.369882,0 -10.274407,-1.95889 -14.049272,-5.19607 l -2.6479,0.185 c 4.265216,4.29636 10.172916,6.9603 16.697172,6.9603 1.93166,0 3.807215,-0.23895 5.604309,-0.67903 z"
             style="fill:#ffffff"
             id="path79"
             inkscape:label="Circle-2" />
          <path
             d="m 47.39017,97.520255 0.56534,-2.694926 c -0.25516,-0.437073 -0.496787,-0.882946 -0.721403,-1.338937 l -2.284615,-0.321944 c 0.658811,1.544514 1.481923,3.001314 2.440678,4.355807 z"
             style="fill:#ffffff"
             id="path78"
             inkscape:label="Circle-1" />
          <path
             style="font-weight:bold;font-size:7.76111px;font-family:Rockwell;-inkscape-font-specification:'Rockwell Italic';fill:#ffffff;stroke-width:0.544023"
             d="m 48.632787,91.973624 -0.850477,0.264161 -0.187723,-0.604382 -3.333145,1.035287 0.187723,0.604382 -0.850477,0.264161 -1.378135,-4.436955 1.596001,-0.495724 0.299008,0.962667 -0.745524,0.231563 0.484483,1.55981 1.161715,-0.360833 -0.391183,-1.259429 0.850476,-0.264161 0.391184,1.259429 1.320953,-0.410293 -0.484483,-1.55981 -0.752762,0.233811 -0.299008,-0.962668 1.603239,-0.497972 z m -2.463328,-7.702842 0.889971,-0.03228 0.100693,2.775954 -0.889972,0.03228 -0.02431,-0.670319 -3.487932,0.126519 0.02432,0.670319 -0.889972,0.03228 -0.100693,-2.775954 q -0.03517,-0.969502 0.400192,-1.512395 0.435222,-0.54668 1.204006,-0.574567 0.439305,-0.01593 0.805812,0.156584 0.36272,0.172655 0.566441,0.457257 0.199795,0.280952 0.28535,0.653267 0.08163,0.368664 0.101962,0.929157 l 0.01827,0.503686 1.022521,-0.03709 z m -1.874482,0.80366 -0.0074,-0.204504 q -0.02555,-0.704403 -0.260058,-0.896878 -0.238432,-0.196125 -0.579272,-0.183761 -0.287821,0.01044 -0.483455,0.157844 -0.199422,0.147541 -0.238273,0.330971 -0.04264,0.183567 -0.02766,0.596363 l 0.0093,0.257523 z m 2.697702,-3.276671 -0.863515,-0.217793 0.16126,-0.639369 -3.384244,-0.853564 -0.161259,0.639368 -0.863515,-0.217793 0.622796,-2.469285 0.863515,0.217793 -0.13531,0.536482 1.120732,0.282668 0.35125,-1.392648 -1.120733,-0.282668 -0.130675,0.518109 -0.863515,-0.217793 0.619089,-2.454587 0.863514,0.217793 -0.162186,0.643043 3.384243,0.853565 0.162187,-0.643043 0.863515,0.217793 -0.619089,2.454587 -0.863515,-0.217793 0.130676,-0.518109 -1.396322,-0.352177 -0.35125,1.392648 1.396322,0.352176 0.13531,-0.536481 0.863515,0.217793 z m 1.575431,-5.724146 -0.768205,-0.450503 0.320144,-0.545916 -3.01071,-1.765588 -0.320144,0.545916 -0.768205,-0.450502 2.350282,-4.007743 1.441611,0.845412 -0.509931,0.869543 -0.673406,-0.394909 -0.826241,1.408921 1.049336,0.615367 0.667127,-1.137597 0.768205,0.450503 -0.667127,1.137597 1.193169,0.699717 0.826242,-1.408921 -0.679944,-0.398743 0.509931,-0.869542 1.448149,0.849245 z m 2.504125,-4.587683 -0.574424,-0.680536 0.521261,-0.439985 -2.251254,-2.66712 -0.521261,0.439984 -0.574424,-0.680535 2.01844,-1.703718 2.88074,1.615078 -1.105556,-3.113469 2.058982,-1.737939 0.574424,0.680536 -0.521261,0.439984 2.251254,2.667121 0.521261,-0.439985 0.574424,0.680536 -2.027127,1.711051 -0.574424,-0.680536 0.48651,-0.410652 -2.251253,-2.667121 -0.09557,0.08066 1.577547,4.401175 -0.434385,0.366653 -4.088288,-2.281916 -0.09557,0.08066 2.251254,2.667121 0.527053,-0.444874 0.574424,0.680536 z m 6.438863,-4.991409 -0.31512,-0.832942 0.59192,-0.223936 -1.235001,-3.264421 -0.59192,0.223936 -0.31512,-0.832942 4.345473,-1.643986 0.591353,1.563094 -0.942819,0.356689 -0.276233,-0.730153 -1.52765,0.577943 0.43044,1.137763 1.233463,-0.466646 0.315119,0.832942 -1.233462,0.466645 0.489442,1.293718 1.52765,-0.577943 -0.278915,-0.737242 0.942819,-0.356689 0.594034,1.570183 z m 10.205631,-3.146812 0.07513,0.887382 -1.601064,0.135558 -1.380399,-2.199251 -0.600399,0.05083 0.119573,1.412259 0.65704,-0.05563 0.07513,0.887382 -2.74522,0.232432 -0.07513,-0.887382 0.721234,-0.06106 -0.294457,-3.477783 -0.721234,0.06107 -0.07513,-0.887382 3.168142,-0.268241 q 0.894935,-0.07577 1.326014,0.344109 0.434536,0.415785 0.482813,0.985976 0.07577,0.894934 -0.799418,1.383579 l 0.987677,1.513704 z m -3.577706,-1.963769 0.468236,-0.03964 q 0.868502,-0.07353 0.816069,-0.692814 -0.0259,-0.305864 -0.238819,-0.439962 -0.209145,-0.134419 -0.556546,-0.105005 l -0.592847,0.0502 z m 9.170293,3.070992 -0.176012,0.87299 -2.540958,-0.512306 0.176011,-0.87299 0.661244,0.133319 -0.06617,-0.937283 -1.341061,-0.270383 -0.453907,0.832424 0.690963,0.139312 -0.176012,0.87299 -2.288348,-0.461376 0.176011,-0.87299 0.638955,0.128826 1.69654,-3.218403 -0.687247,-0.138563 0.176011,-0.87299 3.373086,0.680079 -0.176012,0.87299 -0.694677,-0.14006 0.39492,3.640082 z m -2.004841,-2.116791 -0.117098,-1.643406 -0.778181,1.4629 z m 2.035613,3.121186 0.400053,-0.795645 0.673758,0.338768 1.567864,-3.11825 -0.673759,-0.338767 0.400052,-0.795645 2.586691,1.300595 -0.400052,0.795645 -0.687301,-0.345577 -1.567864,3.118249 1.391532,0.699665 0.73201,-1.45586 0.91753,0.461337 -1.132062,2.251505 z"
             id="text62"
             inkscape:label="Text-Ephemeral"
             transform="matrix(1.0171423,0,0,1.0171423,-1.3699551,-1.6034461)"
             aria-label="EPHEMERAL" />
          <path
             style="font-weight:bold;font-size:7.76111px;line-height:0;font-family:Rockwell;-inkscape-font-specification:'Rockwell Italic';letter-spacing:1.05833px;fill:#ffffff;stroke-width:0.529166"
             d="m 73.60937,108.55231 -0.580752,-1.6998 0.846314,-0.28915 q 0.173622,0.46129 0.479095,0.60521 0.304247,0.14034 0.598305,0.0399 0.229509,-0.0784 0.333387,-0.29011 0.102652,-0.21528 0.02914,-0.43045 -0.07841,-0.22951 -0.2853,-0.33102 -0.208111,-0.10511 -0.685535,-0.16625 -1.007595,-0.1243 -1.428628,-0.33686 -0.417447,-0.21379 -0.602454,-0.75529 -0.22299,-0.65267 0.0633,-1.15095 0.286291,-0.49828 0.806272,-0.67594 0.595289,-0.20338 1.079675,0.14772 l -0.1409,-0.41239 0.842728,-0.28793 0.518266,1.51691 -0.842728,0.28793 q -0.159518,-0.33796 -0.428861,-0.45819 -0.266982,-0.12503 -0.535938,-0.0331 -0.207992,0.0711 -0.313453,0.23124 -0.105462,0.16017 -0.0442,0.33948 0.05268,0.1542 0.218808,0.25362 0.164899,0.0958 0.825662,0.15442 0.636795,0.0588 0.999466,0.15911 0.365031,0.0955 0.646207,0.35589 0.27995,0.25677 0.422075,0.67275 0.252395,0.73873 -0.05051,1.25871 -0.302907,0.51998 -0.891024,0.72091 -0.656252,0.22422 -1.176677,-0.13861 l 0.144575,0.42316 z m 6.652357,-3.95081 0.461601,0.76159 -2.375508,1.4398 -0.4616,-0.76159 0.573621,-0.34768 -1.809081,-2.98477 -0.573621,0.34767 -0.461601,-0.76159 2.375507,-1.4398 q 0.829646,-0.50285 1.515828,-0.38698 0.689423,0.1139 1.088167,0.77178 0.227854,0.37593 0.255659,0.78006 0.02584,0.40088 -0.123523,0.71741 -0.148088,0.31132 -0.431607,0.56736 -0.282242,0.25083 -0.76188,0.54154 l -0.431027,0.26125 0.53035,0.87501 z m -1.614773,-1.24582 0.175004,-0.10607 q 0.602789,-0.36535 0.656696,-0.6639 0.05518,-0.30376 -0.1216,-0.59544 -0.149283,-0.2463 -0.373299,-0.34538 -0.225979,-0.10233 -0.405109,-0.0469 -0.181094,0.0521 -0.534341,0.26626 l -0.220374,0.13357 z m 7.562508,-3.863972 0.626228,0.633192 -1.842987,1.82272 -0.626229,-0.63319 0.479608,-0.47433 -0.81472,-0.46809 -0.972688,0.96199 0.437501,0.84116 0.501163,-0.49565 0.626228,0.63319 -1.659766,1.64152 -0.626229,-0.63319 0.463442,-0.45835 -1.724094,-3.203725 -0.498468,0.492985 -0.626229,-0.633186 2.446539,-2.419641 0.626228,0.63319 -0.503857,0.498318 3.241055,1.703445 z m -2.875302,0.48253 -1.429105,-0.819847 0.779749,1.462069 z m 1.985014,-7.302866 0.452396,-0.767092 1.599468,0.943292 -0.452395,0.767092 q -1.054263,-0.1818 -1.52976,0.624463 -0.392717,0.665901 -0.141124,1.276231 0.253517,0.607066 0.886776,0.980533 0.662637,0.390792 1.285689,0.274289 0.621712,-0.121693 0.950902,-0.679875 0.269512,-0.456991 0.161545,-0.982617 -0.107967,-0.525627 -0.588392,-0.971743 l 0.955087,-0.64221 q 1.279569,1.44096 0.257349,3.174262 -0.721908,1.224083 -1.748972,1.458682 -1.025139,0.231335 -2.033784,-0.363517 -0.718129,-0.423519 -1.066142,-1.064316 -0.348013,-0.640797 -0.297454,-1.345704 0.04922,-0.710097 0.434237,-1.362941 0.479347,-0.812792 1.22711,-1.11092 z m 5.657078,0.272674 -0.858118,-0.238173 0.169255,-0.609811 -3.363089,-0.933437 -0.169255,0.609811 -0.858117,-0.238174 1.242555,-4.476816 1.61034,0.446955 -0.269592,0.971316 -0.752222,-0.208782 -0.436821,1.573824 1.172152,0.325335 0.352699,-1.270744 0.858118,0.238173 -0.3527,1.270744 1.332821,0.369929 0.43682,-1.573824 -0.759525,-0.210809 0.269592,-0.971315 1.617642,0.448982 z"
             id="text62-0"
             inkscape:label="Text-Space"
             aria-label="SPACE" />
          <g
             id="g68"
             transform="translate(2.217041e-5,-1.0582429)"
             style="fill:url(#linearGradient82);fill-opacity:1"
             inkscape:label="Icon">
            <path
               d="m 84.154854,75.761377 c -1.64248,0.372401 -3.35832,0.73809 -3.481443,0.860413 -0.08115,0.08064 -0.286017,0.926668 -0.517281,1.917712 l 3.46749,-0.242879 z"
               style="display:inline;fill:url(#linearGradient83);fill-opacity:1;stroke-width:0.544629"
               id="path68"
               inkscape:label="S-Upper" />
            <path
               d="m 79.764422,69.399491 c 0.392992,1.718122 0.791222,3.602087 0.920355,3.732072 0.131648,0.132511 2.078323,0.555842 3.818371,0.967382 l 1.069707,-5.106147 z"
               style="display:inline;fill:url(#linearGradient84);fill-opacity:1;stroke-width:0.544629"
               id="path67"
               inkscape:label="S-Uppest" />
            <path
               d="m 79.696208,80.478402 c -0.324433,1.369445 -0.641743,2.619959 -0.7891,2.619478 -0.143023,-4.68e-4 -0.439687,-1.191627 -0.745176,-2.512509 l -4.865846,0.340032 1.05988,-5.044654 c -1.754664,-0.405328 -3.649482,-0.849884 -3.648872,-1.036629 9.11e-4,-0.335626 6.249358,-1.487378 6.487461,-1.723926 0.126757,-0.125931 0.521216,-1.926504 0.915702,-3.608049 l -7.861019,0.513148 -3.506761,16.792773 9.912575,-0.692464 -1.616961,7.580416 -4.437973,0.309025 0.994773,-4.6731 -5.475113,0.380855 -2.156464,10.189042 15.346358,-1.072286 0.975127,-4.651912 0.974618,-4.651396 0.974617,-4.651395 0.975137,-4.651912 z"
               style="display:inline;fill:url(#linearGradient85);fill-opacity:1;stroke-width:0.544629"
               id="path66"
               inkscape:label="S" />
            <path
               d="m 67.922767,70.197375 -14.019813,0.980302 -6.262154,29.846753 14.019303,-0.98081 1.160134,-5.514396 -8.58552,0.599963 1.617981,-7.662582 5.93091,-0.414445 1.161683,-5.514909 -5.9309,0.414445 1.160134,-5.640482 8.588107,-0.59893 z"
               style="baseline-shift:baseline;display:inline;overflow:visible;vector-effect:none;fill:url(#linearGradient86);fill-opacity:1;stroke-width:1.56624;enable-background:accumulate;stop-color:#000000"
               id="path65"
               inkscape:label="E" />
          </g>
        </g>
      </g>
    </g>
  </g>
</svg>
